<?xml version="1.0" encoding="UTF-8"?>
<svg xmlns="http://www.w3.org/2000/svg" viewBox="0 0 41.5 41.5">
  <path fill="currentColor" d="M5.05,7.99l-.07,20,12.46.02c.11.9.1,1.59,0,2.49l-11.99.04c-.74-.81-2.74-1.77-2.77-3.06-.17-6.42-.2-12.5.01-18.94.03-1.01,1.93-2.58,2.89-2.93l28.87.05c.97,0,2.78,1.95,2.86,2.93.37,4.62.05,9.59.14,14.18-.92.35-1.56.31-2.46.15V8s-29.95,0-29.95,0Z"/>
  <path fill="currentColor" d="M29.29,32.46l-6.77,6.63.15-23.13,16.28,16.3-9.66.19ZM28.3,30.02c1.78-.17,3.11.2,4.82-.16l-8.05-8.01-.04,11.22,3.27-3.06Z"/>
</svg>
